<?xml version="1.0" encoding="UTF-8"?>
<svg width="400px" height="62px" viewBox="0 0 400 62" version="1.1" xmlns="http://www.w3.org/2000/svg" xmlns:xlink="http://www.w3.org/1999/xlink">
    <title>logo-1</title>
    <g id="logo-1" stroke="none" stroke-width="1" fill="none" fill-rule="evenodd">
        <path d="M41.6,55.5 C43.2666667,55.5 44.4833333,55.0666667 45.25,54.2 C46.0166667,53.3333333 46.4,52.3666667 46.4,51.3 C46.4,35.5 46.3,21.6666667 46.1,9.8 C46.1,7.93333333 45.1333333,7 43.2,7 C42.1333333,7 41.2166667,7.31666667 40.45,7.95 C39.6833333,8.58333333 39.1666667,9.16666667 38.9,9.7 C38.6333333,10.2333333 38.2833333,11.2 37.85,12.6 C37.4166667,14 37.1333333,14.8666667 37,15.2 C34.4,22.4666667 29.7333333,26.1 23,26.1 C20.6666667,26.1 18.5833333,24.7666667 16.75,22.1 C14.9166667,19.4333333 13.9333333,16.4 13.8,13 C13.7333333,12.1333333 13.3166667,11.4833333 12.55,11.05 C11.7833333,10.6166667 10.9166667,10.4 9.95,10.4 C8.98333333,10.4 8.13333333,10.8333333 7.4,11.7 C6.66666667,12.5666667 6.3,13.4666667 6.3,14.4 L6.3,14.4 L6.3,34.1 L6,52.6 C6,54.5333333 6.9,55.5 8.7,55.5 C11.7,55.5 13.2666667,54.1 13.4,51.3 C13.5245902,49.3688525 13.5909702,43.1301532 13.59914,32.5839022 L13.5999463,30.8829078 L13.5999463,30.8829078 L13.6,30.3 C15.7333333,32.3666667 18.7,33.4 22.5,33.4 C26.3,33.4 29.35,32.8 31.65,31.6 C33.95,30.4 36.3333333,28.3 38.8,25.3 C38.8,29.3 38.85,33.0166667 38.95,36.45 C39.05,39.8833333 39.1,45.1333333 39.1,52.2 C39.1,54.4 39.9333333,55.5 41.6,55.5 Z M75.9714286,55.4 C81.1047619,55.4 85.3380952,53 88.6714286,48.2 C92.0047619,43.4 93.6714286,37.7 93.6714286,31.1 C93.6714286,24.5 92.1547619,19.3 89.1214286,15.5 C86.0880952,11.7 82.1047619,9.8 77.1714286,9.8 C71.0380952,9.8 66.1380952,11.5333333 62.4714286,15 C58.8047619,18.4666667 56.9714286,23.6666667 56.9714286,30.6 C56.9714286,37.5333333 58.7380952,43.4 62.2714286,48.2 C65.8047619,53 70.3714286,55.4 75.9714286,55.4 Z M76.6714286,48.1 C72.6714286,48.1 69.5380952,46.2333333 67.2714286,42.5 C65.0047619,38.7666667 63.8714286,34.7166667 63.8714286,30.35 C63.8714286,25.9833333 64.9380952,22.6166667 67.0714286,20.25 C69.2047619,17.8833333 72.2047619,16.7 76.0714286,16.7 C79.9380952,16.7 82.6380952,17.95 84.1714286,20.45 C85.7047619,22.95 86.4714286,26.8666667 86.4714286,32.2 C86.4714286,37.5333333 85.1380952,41.8666667 82.4714286,45.2 C80.8714286,47.1333333 78.9380952,48.1 76.6714286,48.1 Z M109.042857,55.5 C110.17619,55.5 111.209524,55.1333333 112.142857,54.4 C113.07619,53.6666667 113.542857,52.8 113.542857,51.8 L113.542857,51.8 L113.542857,51.7 C113.409524,49.1 113.27619,45.1333333 113.142857,39.8 C116.209524,41.9333333 119.309524,44.35 122.442857,47.05 C125.57619,49.75 127.709524,51.8166667 128.842857,53.25 C129.97619,54.6833333 130.909524,55.4 131.642857,55.4 C132.37619,55.4 132.97619,55.3333333 133.442857,55.2 C135.042857,54.6666667 135.842857,53.5 135.842857,51.7 C135.842857,49.9 134.209524,47.4333333 130.942857,44.3 C127.67619,41.1666667 123.942857,38.2666667 119.742857,35.6 C120.342857,35.4666667 121.97619,34.6666667 124.642857,33.2 C127.309524,31.7333333 129.359524,30.4833333 130.792857,29.45 C132.22619,28.4166667 133.57619,27 134.842857,25.2 C136.109524,23.4 136.742857,21.7666667 136.742857,20.3 C136.742857,17.3 135.12619,14.7333333 131.892857,12.6 C128.659524,10.4666667 124.892857,9.4 120.592857,9.4 C116.292857,9.4 112.859524,10 110.292857,11.2 C107.72619,12.4 106.442857,14.0666667 106.442857,16.2 C106.442857,16.6575439 106.442857,17.1109658 106.442857,17.5602659 L106.443965,19.5542936 C106.457262,39.2163435 106.590226,50.5315789 106.842857,53.5 C106.842857,54.8333333 107.57619,55.5 109.042857,55.5 Z M113.142857,30.9 C113.142857,24.9 113.17619,20.3 113.242857,17.1 C115.642857,16.5 118.109524,16.2 120.642857,16.2 C122.842857,16.2 124.942857,16.65 126.942857,17.55 C128.942857,18.45 129.942857,19.8 129.942857,21.6 C129.742857,23.4666667 127.442857,25.4833333 123.042857,27.65 C118.642857,29.8166667 115.342857,30.9 113.142857,30.9 Z M154.514286,55.5 L174.114286,55.3 C176.714286,55.3 178.014286,53.9 178.014286,51.1 C178.014286,49.6333333 177.047619,48.8 175.114286,48.6 L175.114286,48.6 L157.814286,48.9 C157.880952,48.7666667 157.914286,47.8333333 157.914286,46.1 L157.914286,46.1 L157.714286,33 C161.914286,33.0666667 165.264286,33.1 167.764286,33.1 L168.132786,33.099625 C170.425452,33.094875 171.935952,33.045 172.664286,32.95 C173.430952,32.85 174.147619,32.4333333 174.814286,31.7 C175.480952,30.9666667 175.814286,30.2 175.814286,29.4 C175.814286,27.8 174.780952,26.8666667 172.714286,26.6 L172.714286,26.6 L171.046473,26.5994375 C164.363348,26.5948125 159.819286,26.5616667 157.414286,26.5 C157.352381,25.8190476 157.319218,22.867517 157.314796,17.6454082 L157.314286,16.4 C159.780952,16.6 162.247619,16.7 164.714286,16.7 C171.314286,16.7 175.480952,16.2333333 177.214286,15.3 C178.014286,14.8333333 178.414286,13.9333333 178.414286,12.6 C178.414286,10.8666667 177.347619,9.86666667 175.214286,9.6 L175.214286,9.6 L175.114286,9.6 L157.614286,9.3 L157.614286,9.3 L154.814286,9.3 C151.814286,9.36666667 150.314286,10.6333333 150.314286,13.1 C150.314286,17.3666667 150.414286,22.1 150.614286,27.3 C149.880952,28.0333333 149.514286,28.8666667 149.514286,29.8 C149.514286,30.7333333 149.947619,31.4333333 150.814286,31.9 L150.814286,31.9 L150.814286,48.5 C150.814286,49.6333333 150.847619,50.6666667 150.914286,51.6 C150.980952,52.5333333 151.297619,53.4166667 151.864286,54.25 C152.430952,55.0833333 153.314286,55.5 154.514286,55.5 L154.514286,55.5 Z M223.185714,55.5 C224.052381,55.5 224.785714,55.25 225.385714,54.75 C225.985714,54.25 226.285714,53.5666667 226.285714,52.7 C224.619048,45.4333333 223.085714,39.2833333 221.685714,34.25 C220.285714,29.2166667 218.535714,24.45 216.435714,19.95 C214.335714,15.45 212.885714,12.5666667 212.085714,11.3 C211.285714,10.0333333 210.352381,9.4 209.285714,9.4 C207.285714,9.4 205.219048,11.2333333 203.085714,14.9 C200.952381,18.5666667 199.019048,23.1666667 197.285714,28.7 C193.419048,40.7666667 191.485714,48.7666667 191.485714,52.7 C191.485714,54.4333333 192.535714,55.3 194.635714,55.3 C196.735714,55.3 197.919048,54.4666667 198.185714,52.8 C198.452381,50 199.585714,44.9333333 201.585714,37.6 C205.119048,38.5333333 209.819048,39 215.685714,39 L215.685714,39 L219.185714,52.7 C219.719048,54.5666667 221.052381,55.5 223.185714,55.5 Z M213.985714,32.3 C209.985714,32.3 206.519048,31.9 203.585714,31.1 C204.985714,26.5 206.785714,22.3333333 208.985714,18.6 C211.052381,23.1333333 212.719048,27.7 213.985714,32.3 Z M250.557143,55.6 C254.22381,55.6 257.557143,55.3666667 260.557143,54.9 C261.957143,54.6333333 262.657143,53.5666667 262.657143,51.7 C262.657143,49.4333333 261.557143,48.3 259.357143,48.3 L259.357143,48.3 L244.557143,49.2 C244.357143,45.0666667 244.257143,41.5166667 244.257143,38.55 C244.257143,35.5833333 244.62381,30.8666667 245.357143,24.4 C245.957143,19.4666667 246.32381,15.6 246.457143,12.8 C246.457143,11.7333333 246.057143,10.9 245.257143,10.3 C244.457143,9.7 243.42381,9.4 242.157143,9.4 C239.62381,9.4 238.357143,10.2333333 238.357143,11.9 L238.357143,11.9 L237.657143,40.9 C237.657143,46.8333333 237.857143,51.2 238.257143,54 C238.457143,55 239.390476,55.5 241.057143,55.5 L241.057143,55.5 L250.557143,55.6 Z M274.428571,55.5 C275.361905,55.5 276.311905,55.1666667 277.278571,54.5 C278.245238,53.8333333 278.761905,53.0666667 278.828571,52.2 C279.0884,48.4324786 279.221646,38.0509752 279.228308,21.0554898 L279.228061,18.9063776 C279.223639,15.5568878 279.190476,13.3714286 279.128571,12.35 C279.061905,11.25 278.678571,10.4666667 277.978571,10 C277.278571,9.53333333 276.445238,9.3 275.478571,9.3 C274.511905,9.3 273.695238,9.58333333 273.028571,10.15 C272.361905,10.7166667 272.028571,11.4666667 272.028571,12.4 L272.028571,12.4 L271.628571,53.1 C271.628571,54.7 272.561905,55.5 274.428571,55.5 Z M296.2,55.5 C299.133333,55.5 300.6,54.4 300.6,52.2 L300.6,52.2 L300.59952,52.07152 C300.59184,50.91184 300.492,46.588 300.3,39.1 C302.3,37.7 304.266667,36.1333333 306.2,34.4 C308.466667,36.3333333 310.25,38.1166667 311.55,39.75 C312.85,41.3833333 314.35,43.5833333 316.05,46.35 C317.75,49.1166667 319.216667,51.3166667 320.45,52.95 C321.683333,54.5833333 322.766667,55.4 323.7,55.4 C324.633333,55.4 325.45,55.0833333 326.15,54.45 C326.85,53.8166667 327.2,52.8833333 327.2,51.65 C327.2,50.4166667 325.583333,47.2833333 322.35,42.25 C319.116667,37.2166667 315.666667,33.0333333 312,29.7 C320.6,20.9 324.9,14.9 324.9,11.7 C324.9,10.0333333 323.633333,9.2 321.1,9.2 C319.766667,9.2 318.666667,9.9 317.8,11.3 C315.2,15.1666667 312.633333,18.45 310.1,21.15 C307.566667,23.85 304.233333,26.9 300.1,30.3 C300.1,20.5666667 299.4,14.1666667 298,11.1 C297.4,9.9 296.533333,9.3 295.4,9.3 C294.266667,9.3 293.3,9.61666667 292.5,10.25 C291.7,10.8833333 291.3,11.5666667 291.3,12.3 C291.3,13.0333333 291.433333,14.3333333 291.7,16.2 C291.966667,18.0666667 292.3,22.7833333 292.7,30.35 C293.1,37.9166667 293.3,43.5 293.3,47.1 L293.3,52.4 C293.233333,54.4666667 294.2,55.5 296.2,55.5 Z M344.371429,55.5 L363.971429,55.3 C366.571429,55.3 367.871429,53.9 367.871429,51.1 C367.871429,49.6333333 366.904762,48.8 364.971429,48.6 L364.971429,48.6 L347.671429,48.9 C347.738095,48.7666667 347.771429,47.8333333 347.771429,46.1 L347.771429,46.1 L347.571429,33 C351.771429,33.0666667 355.121429,33.1 357.621429,33.1 L357.989929,33.099625 C360.282595,33.094875 361.793095,33.045 362.521429,32.95 C363.288095,32.85 364.004762,32.4333333 364.671429,31.7 C365.338095,30.9666667 365.671429,30.2 365.671429,29.4 C365.671429,27.8 364.638095,26.8666667 362.571429,26.6 L362.571429,26.6 L360.903616,26.5994375 C354.220491,26.5948125 349.676429,26.5616667 347.271429,26.5 C347.209524,25.8190476 347.176361,22.867517 347.171939,17.6454082 L347.171429,16.4 C349.638095,16.6 352.104762,16.7 354.571429,16.7 C361.171429,16.7 365.338095,16.2333333 367.071429,15.3 C367.871429,14.8333333 368.271429,13.9333333 368.271429,12.6 C368.271429,10.8666667 367.204762,9.86666667 365.071429,9.6 L365.071429,9.6 L364.971429,9.6 L347.471429,9.3 L347.471429,9.3 L344.671429,9.3 C341.671429,9.36666667 340.171429,10.6333333 340.171429,13.1 C340.171429,17.3666667 340.271429,22.1 340.471429,27.3 C339.738095,28.0333333 339.371429,28.8666667 339.371429,29.8 C339.371429,30.7333333 339.804762,31.4333333 340.671429,31.9 L340.671429,31.9 L340.671429,48.5 C340.671429,49.6333333 340.704762,50.6666667 340.771429,51.6 C340.838095,52.5333333 341.154762,53.4166667 341.721429,54.25 C342.288095,55.0833333 343.171429,55.5 344.371429,55.5 L344.371429,55.5 Z M388.092857,55.4 C389.52619,55.4 390.77619,54.7833333 391.842857,53.55 C392.909524,52.3166667 393.442857,50.9666667 393.442857,49.5 C393.242857,47.6333333 392.609524,46.1666667 391.542857,45.1 C390.47619,44.0333333 389.209524,43.5 387.742857,43.5 C386.342857,43.5 385.12619,44.3 384.092857,45.9 C383.059524,47.5 382.542857,49.1 382.542857,50.7 C382.542857,52.3 383.109524,53.4833333 384.242857,54.25 C385.37619,55.0166667 386.659524,55.4 388.092857,55.4 Z" id="morealike." fill="#000000" fill-rule="nonzero"></path>
    </g>
</svg>