<?xml version="1.0" encoding="UTF-8"?>
<svg width="525px" height="90px" viewBox="0 0 525 90" version="1.1" xmlns="http://www.w3.org/2000/svg" xmlns:xlink="http://www.w3.org/1999/xlink">
    <title>logo-2</title>
    <g id="logo-2" stroke="none" stroke-width="1" fill="none" fill-rule="evenodd">
        <path d="M25.8476562,87 C26.0429687,87 26.3522135,86.9348958 26.7753906,86.8046875 C27.1985677,86.6744792 27.6217448,86.4791667 28.0449219,86.21875 C28.468099,85.9583333 28.875,85.7141927 29.265625,85.4863281 C29.65625,85.2584635 29.9166667,85.046875 30.046875,84.8515625 C30.046875,84.8515625 30.1119792,84.1028646 30.2421875,82.6054688 C30.3723958,81.1080729 30.5839844,79.2688802 30.8769531,77.0878906 C31.1699219,74.906901 31.5442708,72.563151 32,70.0566406 C32.4557292,67.5501302 32.9440104,65.2063802 33.4648437,63.0253906 C33.9856771,60.844401 34.5716146,59.0377604 35.2226562,57.6054687 C35.8736979,56.1731771 36.5572917,55.4570312 37.2734375,55.4570312 C39.2265625,55.4570312 40.7402344,56.0917969 41.8144531,57.3613281 C42.8886719,58.6308594 43.735026,60.2096354 44.3535156,62.0976562 C44.9720052,63.9856771 45.4928385,66.0527344 45.9160156,68.2988281 C46.3391927,70.5449219 46.860026,72.6119792 47.4785156,74.5 C48.0970052,76.3880208 48.8945312,77.9667969 49.8710937,79.2363281 C50.8476562,80.5058594 52.2473958,81.140625 54.0703125,81.140625 C54.3307292,81.140625 54.8515625,81.0917969 55.6328125,80.9941406 C56.4140625,80.8964844 56.9348958,80.7825521 57.1953125,80.6523438 C57.5208333,79.7408854 57.9602865,78.422526 58.5136719,76.6972656 C59.0670573,74.9720052 59.7018229,73.0839844 60.4179687,71.0332031 C61.1341146,68.9824219 61.9479167,66.9153646 62.859375,64.8320312 C63.7708333,62.7486979 64.7473958,60.8606771 65.7890625,59.1679687 C66.8307292,57.4752604 67.953776,56.0755208 69.1582031,54.96875 C70.3626302,53.8619792 71.6484375,53.3085937 73.015625,53.3085937 C73.0807292,53.3085937 73.1458333,53.3248698 73.2109375,53.3574219 C73.2760417,53.389974 73.3736979,53.40625 73.5039062,53.40625 C73.6341146,53.4713542 73.796875,53.5039062 73.9921875,53.5039062 C74.2526042,53.6341146 74.6432292,53.9759115 75.1640625,54.5292969 C75.6848958,55.0826823 75.9453125,55.4570312 75.9453125,55.6523437 L75.9453125,55.6523437 L82.2929687,84.8515625 C82.7486979,84.9817708 83.1067708,85.0794271 83.3671875,85.1445312 C83.6927083,85.2096354 83.9856771,85.2584635 84.2460937,85.2910156 C84.5065104,85.3235677 84.7018229,85.3398438 84.8320312,85.3398438 C85.4179687,85.3398438 86.0527344,85.3072917 86.7363281,85.2421875 C87.4199219,85.1770833 88.0546875,85.030599 88.640625,84.8027344 C89.2265625,84.5748698 89.7148437,84.2330729 90.1054687,83.7773438 C90.4960937,83.3216146 90.6914062,82.6705729 90.6914062,81.8242188 C90.6914062,80.7825521 90.577474,79.0735677 90.3496094,76.6972656 C90.1217448,74.3209635 89.7473958,71.7005208 89.2265625,68.8359375 C88.7057292,65.9713542 87.9895833,62.9928385 87.078125,59.9003906 C86.1666667,56.8079427 85.0110677,54.0084635 83.6113281,51.5019531 C82.2115885,48.9954427 80.5351562,46.9121094 78.5820312,45.2519531 C76.6289062,43.5917969 74.3177083,42.7617187 71.6484375,42.7617187 C70.5416667,42.7617187 69.4023437,43.1360677 68.2304687,43.8847656 C67.0585937,44.6334635 65.9192708,45.577474 64.8125,46.7167969 C63.7057292,47.8561198 62.6477865,49.125651 61.6386719,50.5253906 C60.6295573,51.9251302 59.6855469,53.3248698 58.8066406,54.7246094 C57.9277344,56.124349 57.1953125,57.4589844 56.609375,58.7285156 C56.0234375,59.9980469 55.5351562,61.0559896 55.1445312,61.9023437 C53.3867187,60.5351562 51.938151,58.9889323 50.7988281,57.2636719 C49.6595052,55.5384115 48.4876302,53.9108073 47.2832031,52.3808594 C46.078776,50.8509115 44.6627604,49.5813802 43.0351562,48.5722656 C41.4075521,47.563151 39.2265625,47.0585937 36.4921875,47.0585937 C34.0182292,46.5377604 32.0813802,46.5377604 30.6816406,47.0585937 C29.281901,47.5794271 28.2239583,48.4095052 27.5078125,49.5488281 C26.7916667,50.688151 26.3196615,52.0553385 26.0917969,53.6503906 C25.8639323,55.2454427 25.6197917,56.905599 25.359375,58.6308594 C25.0989583,60.3561198 24.7083333,62.0651042 24.1875,63.7578125 C23.6666667,65.4505208 22.8203125,66.9153646 21.6484375,68.1523438 C20.4765625,66.2643229 19.483724,64.1484375 18.6699219,61.8046875 C17.8561198,59.4609375 17.1236979,57.0846354 16.4726562,54.6757812 C15.8216146,52.2669271 15.2519531,49.874349 14.7636719,47.4980469 C14.2753906,45.1217448 13.8033854,42.9244792 13.3476562,40.90625 C13.2174479,40.90625 12.875651,40.889974 12.3222656,40.8574219 C11.7688802,40.8248698 11.3945312,40.8085937 11.1992187,40.8085937 C9.37630208,40.8085937 8.18815104,41.2643229 7.63476562,42.1757812 C7.08138021,43.0872396 6.8046875,44.3567708 6.8046875,45.984375 C6.8046875,47.2864583 7.01627604,49.1744792 7.43945312,51.6484375 C7.86263021,54.1223958 8.46484375,56.8893229 9.24609375,59.9492187 C10.0273437,63.0091146 10.9876302,66.1341146 12.1269531,69.3242188 C13.266276,72.5143229 14.5358073,75.4277344 15.9355469,78.0644531 C17.3352865,80.7011719 18.8815104,82.8496094 20.5742187,84.5097656 C22.2669271,86.1699219 24.0247396,87 25.8476562,87 Z M115.161272,87.1953125 C118.676897,87.1953125 122.192522,86.3815104 125.708147,84.7539062 C129.223772,83.1263021 132.381324,80.9941406 135.180804,78.3574219 C137.980283,75.7207031 140.258929,72.6933594 142.016741,69.2753906 C143.774554,65.8574219 144.65346,62.3255208 144.65346,58.6796875 C144.65346,56.9869792 144.344215,55.0013021 143.725725,52.7226562 C143.107236,50.4440104 142.212054,48.2792969 141.040179,46.2285156 C139.868304,44.1777344 138.419736,42.4361979 136.694475,41.0039062 C134.969215,39.5716146 132.999814,38.8554687 130.786272,38.8554687 C126.814918,38.8554687 122.892392,39.5716146 119.018694,41.0039062 C115.144996,42.4361979 111.661923,44.405599 108.569475,46.9121094 C105.477028,49.4186198 102.986793,52.4134115 101.098772,55.8964844 C99.2107515,59.3795573 98.2667411,63.1393229 98.2667411,67.1757812 C98.2667411,69.9101562 98.5759859,72.4980469 99.1944754,74.9394531 C99.812965,77.3808594 100.773251,79.4967448 102.075335,81.2871094 C103.377418,83.077474 105.102679,84.5097656 107.251116,85.5839844 C109.399554,86.6582031 112.036272,87.1953125 115.161272,87.1953125 Z M116.137835,78.6992188 C114.314918,78.6992188 112.78497,78.4550781 111.547991,77.9667969 C110.311012,77.4785156 109.318173,76.7786458 108.569475,75.8671875 C107.820778,74.9557292 107.299944,73.8652344 107.006975,72.5957031 C106.714007,71.3261719 106.567522,69.8450521 106.567522,68.1523438 C106.567522,67.2408854 106.974423,66.0690104 107.788225,64.6367188 C108.602028,63.2044271 109.692522,61.7070312 111.05971,60.1445312 C112.426897,58.5820312 113.940569,57.0195312 115.600725,55.4570312 C117.260882,53.8945312 118.95359,52.4947917 120.67885,51.2578125 C122.404111,50.0208333 124.064267,49.0117187 125.659319,48.2304687 C127.254371,47.4492187 128.637835,47.0585937 129.80971,47.0585937 C131.111793,47.0585937 132.186012,47.4166667 133.032366,48.1328125 C133.87872,48.8489583 134.529762,49.7278646 134.985491,50.7695312 C135.44122,51.8111979 135.766741,52.9505208 135.962054,54.1875 C136.157366,55.4244792 136.255022,56.5638021 136.255022,57.6054687 C136.255022,59.9492187 135.669085,62.3580729 134.49721,64.8320312 C133.325335,67.3059896 131.779111,69.5683594 129.858538,71.6191406 C127.937965,73.6699219 125.773251,75.3626302 123.364397,76.6972656 C120.955543,78.031901 118.546689,78.6992188 116.137835,78.6992188 Z M175.178013,87.1953125 C178.107701,87.1953125 179.572545,85.828125 179.572545,83.09375 C179.572545,81.6614583 179.442336,80.2779948 179.18192,78.9433594 C178.921503,77.608724 178.628534,76.3066406 178.303013,75.0371094 C177.977493,73.7675781 177.684524,72.4654948 177.424107,71.1308594 C177.16369,69.796224 177.033482,68.4778646 177.033482,67.1757812 C177.033482,65.4830729 177.114862,63.6113281 177.277623,61.5605469 C177.440383,59.5097656 177.847284,57.5566406 178.498326,55.7011719 C179.149368,53.8457031 180.109654,52.2832031 181.379185,51.0136719 C182.648717,49.7441406 184.422805,49.109375 186.701451,49.109375 C186.831659,49.109375 186.945592,49.125651 187.043248,49.1582031 L187.146329,49.1853299 C187.218667,49.1997975 187.298239,49.2070312 187.385045,49.2070312 C187.450149,49.2721354 187.547805,49.3046875 187.678013,49.3046875 L187.678013,49.3046875 L191.877232,53.5039062 L192.853795,53.5039062 C194.286086,53.5039062 195.571894,53.2109375 196.711217,52.625 C197.850539,52.0390625 198.420201,51.0299479 198.420201,49.5976562 C198.420201,47.9049479 198.09468,46.4075521 197.443638,45.1054687 C196.792597,43.8033854 195.929967,42.6803385 194.855748,41.7363281 C193.781529,40.7923177 192.54455,40.0761719 191.14481,39.5878906 C189.745071,39.0996094 188.263951,38.8554687 186.701451,38.8554687 C183.641555,38.8554687 181.053664,39.6367187 178.937779,41.1992187 C176.821894,42.7617187 174.998977,44.6985677 173.469029,47.0097656 C171.939081,49.3209635 170.653274,51.8111979 169.611607,54.4804687 C168.56994,57.1497396 167.62593,59.6236979 166.779576,61.9023437 C166.714472,61.8372396 166.486607,61.2513021 166.095982,60.1445312 C165.705357,59.0377604 165.2008,57.719401 164.58231,56.1894531 C163.963821,54.6595052 163.247675,52.9830729 162.433873,51.1601562 C161.620071,49.3372396 160.789993,47.6608073 159.943638,46.1308594 C159.097284,44.6009115 158.267206,43.3313802 157.453404,42.3222656 C156.639602,41.313151 155.90718,40.8085937 155.256138,40.8085937 C154.474888,40.8085937 153.872675,40.9713542 153.449498,41.296875 C153.026321,41.6223958 152.717076,42.0292969 152.521763,42.5175781 C152.326451,43.0058594 152.196243,43.5592448 152.131138,44.1777344 C152.066034,44.796224 152.033482,45.3984375 152.033482,45.984375 C152.033482,47.15625 152.375279,48.9791667 153.058873,51.453125 C153.742467,53.9270833 154.670201,56.6940104 155.842076,59.7539062 C157.013951,62.8138021 158.381138,65.9550781 159.943638,69.1777344 C161.506138,72.4003906 163.150019,75.3463542 164.875279,78.015625 C166.600539,80.6848958 168.342076,82.8821615 170.099888,84.6074219 C171.857701,86.3326823 173.550409,87.1953125 175.178013,87.1953125 Z M232.167411,87.1953125 C232.818452,87.1953125 233.811291,87.1790365 235.145926,87.1464844 C236.480562,87.1139323 237.945406,87.016276 239.540458,86.8535156 C241.13551,86.6907552 242.77939,86.4628906 244.472098,86.1699219 C246.164807,85.8769531 247.711031,85.4375 249.11077,84.8515625 C250.51051,84.265625 251.666109,83.5657552 252.577567,82.7519531 C253.489025,81.938151 253.944754,80.9127604 253.944754,79.6757812 C253.944754,78.9596354 253.781994,78.3574219 253.456473,77.8691406 C253.130952,77.3808594 252.707775,77.0227865 252.186942,76.7949219 C251.666109,76.5670573 251.112723,76.4205729 250.526786,76.3554688 C249.940848,76.2903646 249.354911,76.2578125 248.768973,76.2578125 C247.271577,76.2578125 245.855562,76.3880208 244.520926,76.6484375 C243.186291,76.9088542 241.867932,77.2018229 240.565848,77.5273438 C239.263765,77.8528646 237.961682,78.1458333 236.659598,78.40625 C235.357515,78.6666667 233.957775,78.796875 232.460379,78.796875 C231.028088,78.796875 229.400484,78.7154948 227.577567,78.5527344 C225.75465,78.389974 223.996838,78.015625 222.304129,77.4296875 C220.611421,76.84375 219.162853,75.9811198 217.958426,74.8417969 C216.753999,73.702474 216.119234,72.1888021 216.054129,70.3007812 C219.50465,70.9518229 222.890067,70.6751302 226.210379,69.4707031 C229.530692,68.266276 232.476656,66.4759115 235.04827,64.0996094 C237.619885,61.7233073 239.670666,58.9726562 241.200614,55.8476562 C242.730562,52.7226562 243.495536,49.5 243.495536,46.1796875 C243.495536,44.0963542 243.186291,42.094401 242.567801,40.1738281 C241.949312,38.2532552 241.021577,36.5768229 239.784598,35.1445312 C238.547619,33.7122396 237.017671,32.5566406 235.194754,31.6777344 C233.371838,30.7988281 231.255952,30.359375 228.847098,30.359375 C224.615327,30.359375 221.018322,31.2382812 218.056083,32.9960937 C215.093843,34.7539062 212.684989,37.0325521 210.82952,39.8320312 C208.974051,42.6315104 207.62314,45.7890625 206.776786,49.3046875 C205.930432,52.8203125 205.507254,56.3359375 205.507254,59.8515625 C205.507254,63.953125 206.109468,67.6803385 207.313895,71.0332031 C208.518322,74.3860677 210.259859,77.250651 212.538504,79.6269531 C214.81715,82.0032552 217.616629,83.858724 220.936942,85.1933594 C224.257254,86.5279948 228.000744,87.1953125 232.167411,87.1953125 Z M221.327567,60.046875 C218.918713,60.046875 217.405041,59.5260417 216.786551,58.484375 C216.168062,57.4427083 215.858817,55.7825521 215.858817,53.5039062 C215.858817,51.7460937 216.151786,50.0045573 216.737723,48.2792969 C217.323661,46.5540365 218.170015,44.9915365 219.276786,43.5917969 C220.383557,42.1920573 221.734468,41.0527344 223.32952,40.1738281 C224.924572,39.2949219 226.698661,38.8554687 228.651786,38.8554687 C229.953869,38.8554687 231.011812,39.1321615 231.825614,39.6855469 C232.639416,40.2389323 233.306734,40.9550781 233.827567,41.8339844 C234.3484,42.7128906 234.690197,43.6731771 234.852958,44.7148437 C235.015718,45.7565104 235.097098,46.765625 235.097098,47.7421875 C235.097098,49.5 234.706473,51.1276042 233.925223,52.625 C233.143973,54.1223958 232.086031,55.4244792 230.751395,56.53125 C229.41676,57.6380208 227.93564,58.500651 226.308036,59.1191406 C224.680432,59.7376302 223.020275,60.046875 221.327567,60.046875 Z M313.180246,88.3671875 C314.091704,88.953125 314.921782,88.8066406 315.67048,87.9277344 C316.419178,87.0488281 317.216704,85.5351562 318.063058,83.3867188 C316.630766,80.1966146 315.686756,76.7135417 315.231027,72.9375 C314.775298,69.1614583 314.400949,65.3854167 314.10798,61.609375 C313.815011,57.8333333 313.40811,54.171224 312.887277,50.6230469 C312.366443,47.0748698 311.422433,43.8522135 310.055246,40.9550781 C308.688058,38.0579427 306.669829,35.6816406 304.000558,33.8261719 C301.331287,31.9707031 297.652902,30.8151042 292.965402,30.359375 C290.165923,30.359375 287.512928,30.8964844 285.006417,31.9707031 C282.499907,33.0449219 280.139881,34.4934896 277.926339,36.3164062 C275.712798,38.1393229 273.727121,40.2389323 271.969308,42.6152344 C270.211496,44.9915365 268.697824,47.4980469 267.428292,50.1347656 C266.158761,52.7714844 265.198475,55.4244792 264.547433,58.09375 C263.896391,60.7630208 263.570871,63.3346354 263.570871,65.8085938 C263.570871,72.1888021 265.035714,76.9902344 267.965402,80.2128906 C270.895089,83.4355469 275.387277,85.046875 281.441964,85.046875 C284.241443,85.046875 286.601469,84.8190104 288.522042,84.3632812 C290.442615,83.9075521 292.249256,83.2239583 293.941964,82.3125 C295.634673,81.4010417 297.376209,80.2779948 299.166574,78.9433594 C300.956938,77.608724 303.0891,76.0950521 305.563058,74.4023438 C307.320871,78.5690104 308.80199,81.7916667 310.006417,84.0703125 C311.210844,86.3489583 312.268787,87.78125 313.180246,88.3671875 Z M281.441964,76.7460938 C277.861235,76.7460938 275.371001,75.8834635 273.971261,74.1582031 C272.571522,72.4329427 271.871652,69.7148438 271.871652,66.0039062 C271.871652,63.0091146 272.457589,59.9003906 273.629464,56.6777344 C274.801339,53.4550781 276.428943,50.5091146 278.512277,47.8398437 C280.59561,45.1705729 283.069568,42.9733073 285.934152,41.2480469 C288.798735,39.5227865 291.923735,38.6601562 295.309152,38.6601562 C297.132068,38.6601562 298.499256,39.4251302 299.410714,40.9550781 C300.322173,42.485026 300.940662,44.2916667 301.266183,46.375 C301.591704,48.4583333 301.721912,50.5579427 301.656808,52.6738281 C301.591704,54.7897135 301.559152,56.4335937 301.559152,57.6054687 C301.559152,60.4700521 301.005766,63.0742187 299.898996,65.4179688 C298.792225,67.7617188 297.327381,69.7636719 295.504464,71.4238281 C293.681548,73.0839844 291.549386,74.3860677 289.10798,75.3300781 C286.666574,76.2740885 284.111235,76.7460938 281.441964,76.7460938 Z M340.384487,87.5859375 C341.68657,88.8229167 343.41183,88.7252604 345.560268,87.2929687 C345.364955,83.5820312 345.088263,79.4641927 344.73019,74.9394531 C344.372117,70.4147135 343.94894,65.8085937 343.460658,61.1210937 C342.972377,56.4335937 342.435268,51.7623698 341.84933,47.1074219 C341.263393,42.452474 340.644903,38.1393229 339.993862,34.1679687 C339.34282,30.1966146 338.675502,26.6809896 337.991908,23.6210937 C337.308315,20.5611979 336.608445,18.2825521 335.892299,16.7851562 C333.548549,16.7851562 331.937221,17.2083333 331.058315,18.0546875 C330.179408,18.9010417 329.674851,20.0240885 329.544643,21.4238281 C329.414435,22.8235677 329.479539,24.4186198 329.739955,26.2089844 C330.000372,27.999349 330.13058,29.8385417 330.13058,31.7265625 C331.042039,35.1770833 331.790737,39.1321615 332.376674,43.5917969 C332.962612,48.0514323 333.467169,52.5761719 333.890346,57.1660156 C334.313523,61.7558594 334.752976,66.1829427 335.208705,70.4472656 C335.664435,74.7115885 336.315476,78.3248698 337.16183,81.2871094 C338.008185,84.249349 339.082403,86.3489583 340.384487,87.5859375 Z M354.893415,20.3007812 C358.083519,21.4075521 360.362165,21.781901 361.729353,21.4238281 C363.09654,21.0657552 363.828962,20.4147135 363.926618,19.4707031 C364.024275,18.5266927 363.649926,17.46875 362.803571,16.296875 C361.957217,15.125 360.915551,14.2786458 359.678571,13.7578125 C357.855655,13.7578125 356.6024,14.4088542 355.918806,15.7109375 C355.235212,17.0130208 354.893415,18.5429687 354.893415,20.3007812 Z M368.955915,87.1953125 C371.950707,87.1953125 373.448103,85.7304688 373.448103,82.8007812 C373.448103,79.4153646 373.041202,75.7695312 372.2274,71.8632812 C371.413597,67.9570312 370.485863,64.0019531 369.444196,59.9980469 C368.40253,55.9941406 367.425967,52.0065104 366.514509,48.0351562 C365.603051,44.0638021 365.049665,40.3203125 364.854353,36.8046875 C363.682478,37.1953125 362.526879,37.7161458 361.387556,38.3671875 C360.248233,39.0182292 359.320499,39.8645833 358.604353,40.90625 C358.604353,41.296875 358.588077,41.9479167 358.555525,42.859375 C358.522972,43.7708333 358.49042,44.7148437 358.457868,45.6914062 C358.425316,46.6679687 358.392764,47.5957031 358.360212,48.4746094 C358.32766,49.3535156 358.311384,49.9882812 358.311384,50.3789062 L358.311601,50.6332465 C358.313626,51.8525752 358.32983,53.5256076 358.360212,55.6523437 C358.392764,57.9309896 358.49042,60.4375 358.653181,63.171875 C358.815941,65.90625 359.125186,68.6894531 359.580915,71.5214844 C360.036644,74.3535156 360.638858,76.9251302 361.387556,79.2363281 C362.136254,81.547526 363.129092,83.4518229 364.366071,84.9492188 C365.603051,86.4466146 367.132999,87.1953125 368.955915,87.1953125 Z M396.501953,83.7773438 C397.641276,85.5351562 398.731771,85.9583333 399.773437,85.046875 C401.140625,85.046875 402.019531,84.6888021 402.410156,83.9726562 C402.800781,83.2565104 402.947266,82.2799479 402.849609,81.0429688 C402.751953,79.8059896 402.458984,78.40625 401.970703,76.84375 C401.482422,75.28125 400.977865,73.6861979 400.457031,72.0585938 C399.936198,70.4309896 399.496745,68.8033854 399.138672,67.1757812 C398.780599,65.5481771 398.699219,64.1158854 398.894531,62.8789062 C403.842448,65.4179687 408.72526,67.5826823 413.542969,69.3730469 C418.360677,71.1634115 423.276042,72.2213542 428.289062,72.546875 C429.981771,72.546875 431.283854,72.2539062 432.195312,71.6679688 C433.106771,71.0820312 433.5625,69.8450521 433.5625,67.9570312 C433.5625,67.1757812 433.497396,66.5898437 433.367187,66.1992187 C433.236979,65.8085937 433.009115,65.499349 432.683594,65.2714844 C432.358073,65.0436198 431.902344,64.8645833 431.316406,64.734375 C430.730469,64.6041667 429.981771,64.34375 429.070312,63.953125 C428.289062,63.6927083 427.133464,63.2858073 425.603516,62.7324219 C424.073568,62.1790365 422.364583,61.5442708 420.476562,60.828125 C418.588542,60.1119792 416.570312,59.3795573 414.421875,58.6308594 C412.273437,57.8821615 410.255208,57.1660156 408.367187,56.4824219 C406.479167,55.7988281 404.753906,55.1966146 403.191406,54.6757812 C401.628906,54.1549479 400.489583,53.7643229 399.773437,53.5039062 C399.708333,53.1132812 399.643229,52.7714844 399.578125,52.4785156 C399.513021,52.1855469 399.578125,51.84375 399.773437,51.453125 C400.880208,49.1744792 402.507812,46.765625 404.65625,44.2265625 C406.804687,41.6875 409.050781,39.2460937 411.394531,36.9023437 C413.738281,34.5585937 415.968099,32.4427083 418.083984,30.5546875 C420.19987,28.6666667 421.778646,27.2669271 422.820312,26.3554687 C422.820312,26.2252604 422.852865,26.046224 422.917969,25.8183594 C422.983073,25.5904948 423.015625,25.4114583 423.015625,25.28125 C423.015625,23.9791667 422.54362,23.1002604 421.599609,22.6445312 C420.655599,22.1888021 419.695312,21.9609375 418.71875,21.9609375 C417.026042,21.9609375 415.268229,22.4654948 413.445312,23.4746094 C411.622396,24.483724 409.799479,25.7369792 407.976562,27.234375 C406.153646,28.7317708 404.412109,30.359375 402.751953,32.1171875 C401.091797,33.875 399.610677,35.5188802 398.308594,37.0488281 C397.00651,38.578776 395.932292,39.9134115 395.085937,41.0527344 C394.239583,42.1920573 393.71875,42.859375 393.523437,43.0546875 C389.877604,31.53125 388.477865,19.6822917 389.324219,7.5078125 C389.19401,7.3125 388.94987,7.08463542 388.591797,6.82421875 C388.233724,6.56380208 387.826823,6.31966146 387.371094,6.09179687 C386.915365,5.86393229 386.475911,5.66861979 386.052734,5.50585937 C385.629557,5.34309896 385.352865,5.29427083 385.222656,5.359375 C383.920573,5.68489583 382.960286,6.17317708 382.341797,6.82421875 C381.723307,7.47526042 381.30013,8.20768229 381.072266,9.02148437 C380.844401,9.83528646 380.746745,10.7141927 380.779297,11.6582031 C380.811849,12.6022135 380.828125,13.5299479 380.828125,14.4414062 C381.544271,19.4544271 382.374349,24.8092448 383.318359,30.5058594 C384.26237,36.202474 385.255208,41.8177083 386.296875,47.3515625 C387.338542,52.8854167 388.429036,58.1263021 389.568359,63.0742187 C390.707682,68.0221354 391.863281,72.2701823 393.035156,75.8183594 C394.207031,79.3665365 395.36263,82.0195312 396.501953,83.7773438 Z M467.602679,87.1953125 C468.25372,87.1953125 469.246559,87.1790365 470.581194,87.1464844 C471.91583,87.1139323 473.380673,87.016276 474.975725,86.8535156 C476.570778,86.6907552 478.214658,86.4628906 479.907366,86.1699219 C481.600074,85.8769531 483.146298,85.4375 484.546038,84.8515625 C485.945778,84.265625 487.101376,83.5657552 488.012835,82.7519531 C488.924293,81.938151 489.380022,80.9127604 489.380022,79.6757812 C489.380022,78.9596354 489.217262,78.3574219 488.891741,77.8691406 C488.56622,77.3808594 488.143043,77.0227865 487.62221,76.7949219 C487.101376,76.5670573 486.547991,76.4205729 485.962054,76.3554688 C485.376116,76.2903646 484.790179,76.2578125 484.204241,76.2578125 C482.706845,76.2578125 481.29083,76.3880208 479.956194,76.6484375 C478.621559,76.9088542 477.303199,77.2018229 476.001116,77.5273438 C474.699033,77.8528646 473.396949,78.1458333 472.094866,78.40625 C470.792783,78.6666667 469.393043,78.796875 467.895647,78.796875 C466.463356,78.796875 464.835751,78.7154948 463.012835,78.5527344 C461.189918,78.389974 459.432106,78.015625 457.739397,77.4296875 C456.046689,76.84375 454.598121,75.9811198 453.393694,74.8417969 C452.189267,73.702474 451.554501,72.1888021 451.489397,70.3007812 C454.939918,70.9518229 458.325335,70.6751302 461.645647,69.4707031 C464.96596,68.266276 467.911923,66.4759115 470.483538,64.0996094 C473.055153,61.7233073 475.105934,58.9726562 476.635882,55.8476562 C478.16583,52.7226562 478.930804,49.5 478.930804,46.1796875 C478.930804,44.0963542 478.621559,42.094401 478.003069,40.1738281 C477.38458,38.2532552 476.456845,36.5768229 475.219866,35.1445312 C473.982887,33.7122396 472.452939,32.5566406 470.630022,31.6777344 C468.807106,30.7988281 466.69122,30.359375 464.282366,30.359375 C460.050595,30.359375 456.45359,31.2382812 453.49135,32.9960937 C450.529111,34.7539062 448.120257,37.0325521 446.264788,39.8320312 C444.409319,42.6315104 443.058408,45.7890625 442.212054,49.3046875 C441.365699,52.8203125 440.942522,56.3359375 440.942522,59.8515625 C440.942522,63.953125 441.544736,67.6803385 442.749163,71.0332031 C443.95359,74.3860677 445.695126,77.250651 447.973772,79.6269531 C450.252418,82.0032552 453.051897,83.858724 456.37221,85.1933594 C459.692522,86.5279948 463.436012,87.1953125 467.602679,87.1953125 Z M456.762835,60.046875 C454.353981,60.046875 452.840309,59.5260417 452.221819,58.484375 C451.60333,57.4427083 451.294085,55.7825521 451.294085,53.5039062 C451.294085,51.7460937 451.587054,50.0045573 452.172991,48.2792969 C452.758929,46.5540365 453.605283,44.9915365 454.712054,43.5917969 C455.818824,42.1920573 457.169736,41.0527344 458.764788,40.1738281 C460.35984,39.2949219 462.133929,38.8554687 464.087054,38.8554687 C465.389137,38.8554687 466.44708,39.1321615 467.260882,39.6855469 C468.074684,40.2389323 468.742001,40.9550781 469.262835,41.8339844 C469.783668,42.7128906 470.125465,43.6731771 470.288225,44.7148437 C470.450986,45.7565104 470.532366,46.765625 470.532366,47.7421875 C470.532366,49.5 470.141741,51.1276042 469.360491,52.625 C468.579241,54.1223958 467.521298,55.4244792 466.186663,56.53125 C464.852028,57.6380208 463.370908,58.500651 461.743304,59.1191406 C460.115699,59.7376302 458.455543,60.046875 456.762835,60.046875 Z M509.211217,88.1230469 C510.155227,88.2858073 511.180618,88.0579427 512.287388,87.4394531 C513.394159,86.8209635 514.305618,85.5677083 515.021763,83.6796875 C515.021763,80.6197917 513.55692,79.0898438 510.627232,79.0898438 C508.674107,79.5455729 507.30692,80.2454427 506.52567,81.1894531 C505.74442,82.1334635 505.386347,83.09375 505.451451,84.0703125 C505.516555,85.046875 505.923456,85.9257812 506.672154,86.7070312 C507.420852,87.4882812 508.267206,87.9602865 509.211217,88.1230469 Z" id="morealike." fill="#000000" fill-rule="nonzero"></path>
    </g>
</svg>